<svg width="360" height="140" viewBox="0 0 360 140" xmlns="http://www.w3.org/2000/svg" role="img" aria-label="广州研领网络科技有限公司标志">
  <defs>
    <linearGradient id="core" x1="0%" y1="0%" x2="100%" y2="100%">
      <stop offset="0%" stop-color="#0A6DCA" />
      <stop offset="100%" stop-color="#2DD3E0" />
    </linearGradient>
    <linearGradient id="wing" x1="0%" y1="0%" x2="0%" y2="100%">
      <stop offset="0%" stop-color="#27B5F4" />
      <stop offset="100%" stop-color="#5DE0D9" />
    </linearGradient>
    <clipPath id="soft">
      <rect x="8" y="8" width="124" height="124" rx="28" ry="28" />
    </clipPath>
  </defs>
  <g clip-path="url(#soft)">
    <rect x="8" y="8" width="124" height="124" rx="28" ry="28" fill="url(#core)" />
    <path d="M52 18c-18 0-32 13-32 36v18c0 32 20 52 44 52s44-20 44-52V54c0-23-14-36-32-36z" fill="#0C4E92" opacity="0.35" />
    <path d="M70 20c18 0 32 14 32 36v18c0 26-18 42-40 42S22 100 22 74V56c0-22 14-36 32-36z" fill="#fff" opacity="0.85" />
    <path d="M70 20c-10 0-18 8-18 22v14c0 15 7 24 18 24s18-9 18-24V42c0-14-8-22-18-22z" fill="#0E6BB8" />
    <path d="M86 12c16 11 28 36 28 62s-12 50-28 62l28-6c18-18 26-37 26-56s-8-38-26-56z" fill="url(#wing)" opacity="0.85" />
    <circle cx="52" cy="42" r="13" fill="#0B4C83" />
  </g>
  <g transform="translate(150 52)">
    <text font-family="'Microsoft YaHei','Noto Sans SC',sans-serif" font-size="24" font-weight="600" fill="#0B3A63">广州研领网络科技有限公司</text>
    <text font-family="'Noto Sans',sans-serif" font-size="18" fill="#1F5C8C" dy="32">Yanling Tech Co., Ltd.</text>
  </g>
</svg>
